<?xml version="1.0" encoding="UTF-8" standalone="no"?><svg version="1.1" xmlns="http://www.w3.org/2000/svg" xmlns:xlink="http://www.w3.org/1999/xlink" width="4517.58519" height="3849.94132" viewBox="-2080.42052,-1752.44132,4517.58519,3849.94132"><defs><clipPath id="clip-1"><rect x="-777.81162" y="-564.45333" transform="scale(2.67471,3.10467)" width="1689" height="1240" id="clip-1" fill="none"></rect></clipPath><linearGradient x1="-1640.11533" y1="-1364.01953" x2="-1860.27146" y2="1426.55802" gradientUnits="userSpaceOnUse" id="color-1"><stop offset="0" stop-color="#9bfd76"></stop><stop offset="0.43" stop-color="#55b633"></stop><stop offset="0.75" stop-color="#8d7c53"></stop><stop offset="1" stop-color="#b27b61"></stop></linearGradient></defs><g id="document" fill="#ffffff" fill-rule="nonzero" stroke="#000000" stroke-width="0" stroke-linecap="butt" stroke-linejoin="miter" stroke-miterlimit="10" stroke-dasharray="" stroke-dashoffset="0" font-family="none" font-weight="none" font-size="none" text-anchor="none" style="mix-blend-mode: normal"><rect x="-313.63636" y="-197.33045" transform="scale(4.95,6.93)" width="700" height="500" id="Shape 1 1" vector-effect="non-scaling-stroke"></rect></g><g fill="none" fill-rule="nonzero" stroke="none" stroke-width="1" stroke-linecap="butt" stroke-linejoin="miter" stroke-miterlimit="10" stroke-dasharray="" stroke-dashoffset="0" font-family="none" font-weight="none" font-size="none" text-anchor="none" style="mix-blend-mode: normal"><g><g id="stage"><g id="layer1 1"><g clip-path="url(#clip-1)" id="Group 1"><path d="M665.17152,2097.3547l-1122.39236,-0.06208c-0.58844,1.42816 26.82743,-30.98468 26.82743,-30.98468c7.22175,-7.85483 17.92061,-6.51982 28.08455,-7.7617c12.57117,-1.55235 23.27005,-9.31403 34.23641,-15.21293c4.27956,-2.17327 8.02416,0 12.03624,-1.55235c9.36151,-3.72562 18.18809,-7.7617 28.35203,-7.7617c12.03624,-0.31047 28.08455,2.17327 39.58584,-3.10467c8.26336,-3.70318 17.09455,-5.39404 25.94477,-4.96748c9.89647,0 17.38567,-4.03608 26.7472,-7.14076c6.15186,-1.86281 13.37359,-0.62093 19.79293,-4.03608c20.5151,-10.5559 36.83089,-21.11181 48.94735,-31.66771c10.16394,-9.00356 17.65315,-26.0793 25.6773,-36.6352c15.28153,-18.30798 27.60289,-39.65587 36.37618,-63.02496l21.39776,-63.6459c4.27956,-11.79777 2.13978,-27.9421 3.7446,-41.29223c0,-1.45919 1.33736,-7.45123 4.01208,-18.00714c2.94219,-11.79777 0.80241,-22.66415 3.7446,-33.53053c2.13978,-7.14076 4.8145,-14.28152 4.8145,-21.73274c0,-26.0793 -2.40726,-56.19467 4.54702,-80.72162c1.79206,-6.61296 2.67471,-12.63604 2.67471,-18.00714c0.80241,-35.08285 -1.87231,-76.68555 3.47712,-106.17998c2.327,-11.58045 4.46677,-23.28508 6.41932,-35.08285c5.61691,-33.84099 4.8145,-70.16572 4.54702,-104.31717c0,-11.4873 7.48921,-26.0793 6.41932,-39.73988c-0.88266,-12.82232 0.80241,-25.05475 5.08197,-36.6352c1.60483,-4.56387 2.40726,-8.91042 2.40726,-13.03965v-119.5301c0,-11.79777 6.41932,-19.249 6.41932,-30.42584c1.4176,-160.20138 1.68507,-261.32073 0.80241,-303.32702c0,-3.10467 -1.52459,-8.59996 -4.54702,-16.45479c-4.01208,-9.93497 -2.67471,-19.55947 -2.67471,-30.11537c0,-15.5234 -8.02416,-26.70022 -7.22175,-41.91315c0.53493,-10.33858 -1.06989,-20.39773 -4.8145,-30.11537c-0.34772,-1.02455 -0.45471,-2.17327 -0.26748,-3.41515c0.72217,-3.50829 0.26748,-6.92343 -1.33736,-10.24544c-0.14165,-0.28672 -0.23259,-0.60336 -0.26748,-0.9314c0,-13.66058 2.13978,-35.7038 -2.67471,-47.50158c-4.54702,-11.79777 -3.47712,-22.97463 -7.22175,-34.15145c-3.20343,-9.47923 -4.66123,-19.63209 -4.27956,-29.80491l-0.53493,-3.10467c-5.61691,-13.66058 -8.02416,-31.04678 -17.11819,-45.3283c-10.69888,-15.83385 -29.42192,-22.97463 -46.00516,-25.76883c-16.58326,-3.10467 -13.37359,12.41871 -14.176,23.90603c-0.34772,6.20935 0.08025,12.41871 1.33736,18.62807c2.94219,13.66058 2.40726,24.21648 2.40726,37.25613c0,1.24187 0.26748,2.2664 0.80241,3.10467c1.06989,1.45919 1.33736,3.01154 0.80241,4.65702c-0.34772,0.83827 -0.53493,1.86281 -0.53493,3.10467c0.72217,44.70736 0.34772,89.50786 -1.06989,134.43255c-0.53493,10.24544 -4.01208,20.80134 -3.47712,32.28865c0,10.5559 -4.8145,18.00714 -5.34944,28.87351c0,5.58842 -1.87231,9.31403 -2.13978,14.59198c0,26.70022 -8.02416,54.0214 -13.37359,80.10068c-2.13978,10.5559 -7.48921,20.49088 -8.02416,31.04678c0,16.76525 -4.27956,27.9421 -6.41932,42.53408c-3.47712,23.28508 -11.23381,46.57017 -17.92061,69.23431c-4.8145,16.14433 -9.89647,34.46192 -15.24589,54.95281c-12.57704,49.28568 -28.68142,97.26477 -48.14494,143.43612c-7.30338,17.09054 -14.25957,34.37801 -20.8628,51.84811c-6.41932,16.14433 -15.78085,32.59912 -21.93269,50.29578c-4.8145,14.28152 -16.04832,30.42584 -17.11819,45.94922l-1.06989,13.03965c-3.20967,17.3862 -2.40726,33.53053 -4.27956,51.84811c-2.13978,22.66415 -13.37359,29.18397 -32.09663,30.73631c-55.36669,4.03608 -110.19842,3.41515 -165.29763,3.10467c-26.7472,0 -54.29679,6.51982 -81.8464,8.38263c-18.72304,1.24187 -40.12078,3.41515 -60.44865,5.27795c-32.63157,2.48375 -68.4728,8.38263 -94.41758,-20.18041c-12.3037,-13.35012 -24.07247,-57.12607 -17.92061,-75.75413c8.02416,-24.83742 48.14494,-39.73988 66.06557,-40.36081c19.52545,-0.62093 45.47022,-19.86992 58.84382,-35.39332c4.27956,-4.96748 8.02416,-9.31403 13.37359,-13.97104c8.29162,-7.7617 14.71096,-18.62807 22.20017,-26.38976c7.05665,-7.76992 13.66838,-16.06673 19.79293,-24.83742c16.85074,-24.83742 35.30629,-49.67485 47.07506,-68.92385c22.46764,-36.6352 48.94735,-73.2704 63.39084,-114.87308c2.13978,-6.20935 4.8145,-12.0151 8.02416,-17.3862c4.27956,-7.7617 5.34944,-16.14433 9.36151,-23.90603c7.75669,-13.97104 13.64107,-32.59912 18.45557,-44.3969c7.1415,-17.7898 13.37359,-36.1074 18.72304,-54.95281c0.53493,-2.17327 0,-5.27795 0.53493,-6.8303l12.83866,-37.25613c2.67471,-8.6931 0,-16.76525 2.94219,-24.21648c4.8145,-12.41871 12.83866,-27.0107 12.83866,-40.67128v-54.95281c0,-11.79777 6.68679,-18.62807 6.68679,-30.11537v-41.91315c0,-11.79777 -6.68679,-19.55947 -6.68679,-30.42584c0,-20.80134 3.20967,-53.71092 -2.67471,-72.64946c-3.55738,-12.0151 -6.95427,-24.21648 -10.16394,-36.6352c-1.60483,-6.20935 -2.13978,-14.28152 -4.8145,-21.73274c-4.8145,-12.41871 -8.82657,-38.18753 -24.87488,-36.32473c-9.89647,1.24187 -33.43399,7.45123 -40.92321,18.00714c-3.97711,5.7304 -6.56269,12.59037 -7.48921,19.86992c0.03603,0.20487 0.03603,0.41606 0,0.62093c-6.15186,9.93497 -11.50129,21.42228 -18.72304,28.87351c-8.29162,8.38263 -18.72304,18.00714 -29.42192,17.07573c-17.38567,-1.24187 -28.88696,-28.56303 -44.93529,-19.55947c-11.95599,6.8303 -19.71268,18.22446 -23.27005,34.15145c-2.67471,12.41871 6.95427,17.07573 10.69888,27.32117c3.47712,10.5559 2.94219,35.7038 1.06989,46.88063c-3.08245,18.39494 -11.02965,35.21646 -22.73511,48.12251c-17.65315,19.249 -42.7955,17.3862 -63.65832,28.25257c-12.29475,6.19538 -24.03149,13.78707 -35.03883,22.66415c-13.90855,10.5559 -38.24848,-10.5559 -56.1691,-2.48375c-29.42192,13.35012 -44.13287,48.74344 -73.82224,62.7145c-0.85591,0.41395 -1.81882,0.41395 -2.67471,0c-9.36151,-3.72562 -25.40983,-5.89889 -36.37618,-13.35012c-15.51337,-11.17685 -42.52803,-25.14789 -60.44865,-16.76525c-34.23641,15.5234 -65.53061,35.7038 -95.48747,9.00356c-10.4314,-9.31403 -10.4314,-33.22005 -9.09405,-50.91672c1.87231,-30.11537 -54.29679,-46.57017 -73.2873,-54.0214c-7.48921,-3.10467 -16.85074,-2.48375 -24.07247,-4.65702c-19.95065,-4.53411 -38.77597,-14.18695 -55.09921,-28.25257c-24.07247,-24.52695 7.48921,-47.81203 20.32786,-62.09355c7.48921,-8.38263 6.41932,-14.59198 4.27956,-25.76883c-5.34944,-28.25257 -23.27005,-50.60625 -49.48231,-45.63876h-2.67471c-2.48748,-1.02455 -6.76704,-1.76967 -12.83866,-2.17327c-27.81707,-1.55235 -34.77134,-36.32473 -49.48231,-56.81559c-8.82657,-12.41871 -34.77134,-23.28508 -48.94735,-23.28508c-7.22175,0 -14.97843,1.24187 -21.93269,-1.86281c-16.58326,-7.45123 -23.53753,-20.49088 -26.21224,-40.36081c-1.60483,-11.17685 -9.62898,-16.76525 -18.72304,-22.04321c-10.96636,-6.20935 -21.66523,-0.9314 -32.89905,-4.96748c-8.5591,-2.88735 -17.03796,-6.11622 -25.40983,-9.62451c-15.78429,-7.25734 -30.99783,-16.08686 -45.47022,-26.38976c-10.96636,-7.45123 -32.89905,-19.249 -38.78343,-32.28865c-20.06038,-45.01783 59.64623,-63.95636 72.75236,-94.07173c1.4176,-3.322 2.75495,-8.91042 4.01208,-16.76525c3.55738,-23.19194 14.89819,-39.73988 33.96893,-49.67485c8.29162,-4.03608 13.64107,-6.20935 20.32786,-13.97104c10.16394,-11.4873 24.07247,-24.83742 29.42192,-40.36081l14.71096,-46.57017c0.53493,-1.55235 0.26748,-3.10467 0,-4.34655c0,-1.08664 0.26748,-2.17327 0.80241,-3.10467c5.34944,-12.41871 6.95427,-27.9421 10.4314,-38.498c7.22175,-22.04321 18.45557,-55.88421 38.78343,-68.30291c14.176,-8.6931 34.77134,-23.90603 35.30629,-44.3969c0.26748,-9.31403 -4.54702,-21.73274 -6.68679,-31.04678c-1.87231,-6.8303 1.06989,-10.24544 1.06989,-17.07573c0.53493,-18.93852 20.59534,-28.87351 36.10871,-40.36081c15.24589,-11.17685 26.21224,-13.35012 35.57376,-34.15145c11.50129,-25.76883 -7.48921,-41.60269 -10.16394,-67.06104c-1.87231,-16.76525 -11.23381,-29.18397 -15.24589,-41.29223c-4.64473,-14.14133 -6.47352,-29.31902 -5.34944,-44.3969c0.15931,-1.27621 -0.02766,-2.57833 -0.53493,-3.72562c-4.10518,-8.292 -6.65713,-17.49595 -7.48921,-27.0107c0,-1.45919 -0.45471,-2.57688 -1.33736,-3.41515c-21.13028,-24.83742 -50.81966,-36.01426 -71.14752,-60.54122c-13.64107,-16.14433 -2.67471,-37.25613 12.03624,-46.57017c24.07247,-15.5234 58.30888,-25.45836 60.98359,-63.33543c2.13978,-28.56303 33.43399,-51.22718 56.70404,-52.15859c13.37359,-0.31047 28.08455,-10.86637 41.72562,-16.45479c9.89647,-3.72562 19.52545,-12.41871 26.47972,-16.45479c16.04832,-9.93497 33.70145,-18.62807 39.0509,-30.42584c16.04832,-35.7038 33.70145,-69.23431 73.55477,-53.40046c14.71096,6.20935 41.72562,5.58842 53.49438,-8.6931c15.78085,-19.86992 33.43399,-21.73274 56.97151,-21.73274c16.04832,-0.62093 31.02674,-14.90245 41.19068,-27.9421c12.69357,-14.6675 29.09439,-24.24052 46.80759,-27.32117c5.61691,-0.62093 10.69888,-2.48375 16.04832,-1.55235c29.60913,4.12922 48.33217,-10.46277 56.1691,-43.77595c0.64518,-2.50439 0.35399,-5.20821 -0.80241,-7.45123c-11.23381,-21.73274 -5.34944,-39.11895 5.34944,-62.09355c5.53666,-12.41871 10.61863,-25.36522 15.24589,-38.80848c6.95427,-18.93852 -7.22175,-30.73631 -5.34944,-49.36438c2.13978,-20.70819 11.23381,-35.08285 27.28214,-43.15502c14.44348,-7.14076 29.42192,-17.07573 29.42192,-37.87707c0,-18.62807 -5.34944,-84.7577 30.4918,-65.81918c8.5591,4.65702 16.31578,15.5234 26.7472,18.62807c20.8628,5.89889 40.65573,-4.03608 48.41241,-27.9421c7.55208,-22.27075 15.57871,-44.32074 24.07247,-66.12963c7.48921,-20.18041 21.39776,-40.36081 40.92321,-41.91315c20.14064,-1.64548 40.20103,-2.17327 60.18118,-1.55235c12.4158,-2.01383 24.09382,-8.03836 33.70145,-17.3862c9.36151,-11.79777 23.00258,-36.32473 39.58584,-31.35725c17.92061,4.96748 40.12078,22.97463 56.1691,32.59912c13.37359,8.28949 28.53926,18.62807 45.47022,31.04678c8.2078,5.97318 17.0095,10.7687 26.21224,14.28152c15.24589,6.20935 40.12078,4.96748 55.90163,0.9314c9.09405,-2.48375 16.04832,-4.96748 26.21224,-4.96748c11.76876,-0.31047 21.93269,-6.20935 32.09663,-7.7617c31.56168,-4.03608 54.56428,-4.96748 66.86798,33.22005c6.95427,22.66415 21.93269,31.97818 35.84124,46.57017c15.51337,16.76525 25.40983,25.14789 45.47022,25.76883c16.85074,0.62093 24.60742,0.9314 36.64365,10.5559c11.32267,7.75763 25.3087,8.11056 36.91112,0.9314c16.93097,-12.41871 35.11906,-21.73274 54.56428,-27.9421c2.86196,-0.83827 6.87403,0 12.03624,2.48375c6.95427,3.72562 12.83866,4.34655 20.06038,5.58842c8.5591,1.24187 17.11819,5.58842 26.21224,8.38263c0.88266,0.21733 1.79206,0.09314 2.67471,-0.31047c12.03624,-7.7617 22.73511,-8.07215 37.44606,-10.24544c15.24589,-2.17327 22.46764,2.48375 35.84124,13.35012c13.37359,10.86637 23.80501,17.69667 38.78343,9.31403c31.21398,-16.54793 50.36497,-27.9421 57.50647,-34.15145c4.8145,-4.03608 8.82657,-8.07215 14.71096,-10.5559c12.83866,-5.58842 29.95685,-16.45479 43.59792,-16.45479c17.65315,0 39.0509,-2.17327 54.02932,3.10467c13.90855,4.65702 30.4918,15.5234 36.91112,31.35725c4.8145,12.10825 30.22433,21.73274 40.12078,26.70022c11.23381,5.58842 20.32786,4.96748 31.02674,0.62093c0.88266,-0.40361 1.79206,-0.52779 2.67471,-0.31047c23.80501,5.27795 29.68939,37.25613 55.09921,36.6352c18.18809,-0.62093 39.0509,6.20935 49.48231,24.83742c4.8145,8.38263 7.75669,18.62807 14.176,24.83742c10.06999,9.39892 22.40794,14.93213 35.30629,15.83385c12.3037,0.9314 41.99309,-7.14076 44.66781,-22.97463c1.87231,-12.10825 7.48921,-24.21648 8.82657,-32.28865c2.94219,-20.18041 19.25798,-20.18041 31.29422,-10.86637c7.48921,5.58842 8.5591,14.90245 20.32786,17.69667c13.03021,3.52173 26.14129,6.62758 39.31837,9.31403c11.50129,2.79421 22.73511,16.45479 30.22433,21.11181c13.37359,8.91042 28.00431,13.44325 43.8654,13.66058c19.25798,0 42.7955,-3.10467 60.18118,7.7617c12.57117,7.7617 26.7472,27.0107 35.30629,40.36081c8.5591,13.35012 19.52545,22.66415 25.6773,38.80848c5.61691,14.59198 18.18809,42.22362 31.82915,48.12251c34.50387,14.90245 62.85589,19.86992 70.88005,70.47618c1.79206,10.5559 2.75495,19.65261 2.94219,27.32117c0,9.31403 -3.20967,16.76525 -6.15186,25.14789c-5.34944,14.90245 11.23381,49.67485 23.00258,60.54122c10.96636,10.24544 11.23381,22.97463 16.31578,33.22005c14.176,27.0107 39.0509,8.38263 56.43657,30.11537c10.69888,13.35012 11.23381,30.73631 30.22433,31.97818c14.09578,1.02455 27.28214,0 39.58584,-3.10467c8.90682,-2.2664 15.16565,-3.10467 18.72304,-2.48375c31.02674,5.58842 16.85074,56.50513 15.78085,79.47976c-0.53493,9.00356 -0.80241,18.62807 -2.67471,27.32117c-0.53493,2.70108 -0.45471,5.99203 0.26748,9.93497c3.55738,20.70819 10.88611,37.97021 21.93269,51.84811c12.57117,15.5234 17.38567,19.55947 15.78085,39.73988c-1.60483,17.3862 25.40983,25.76883 36.10871,24.83742c0.74892,0 1.49784,-0.21733 2.13978,-0.62093c11.50129,-9.93497 24.07247,-13.97104 36.64365,-21.73274c10.96636,-6.51982 29.42192,-11.17685 39.58584,-0.62093c8.02416,8.38263 6.15186,19.86992 8.02416,31.04678c3.47712,18.62807 -2.67471,38.498 5.61691,55.26326c7.75669,16.14433 20.32786,24.21648 35.30629,29.18397c8.02416,2.48375 12.75841,4.12922 14.176,4.96748c16.58326,9.31403 22.46764,27.9421 18.18809,48.74344c-4.01208,20.18041 2.67471,34.15145 15.51337,46.57017c12.57117,12.72918 19.25798,22.04321 36.37618,23.90603c4.46677,0.40361 8.1044,1.45919 10.96636,3.10467c15.32614,8.47577 29.15443,17.60352 41.45814,27.32117c5.41585,4.34798 11.65468,7.11689 18.18809,8.07215c7.48921,1.24187 15.51337,-4.96748 23.53753,-6.20935c19.98015,-2.2664 36.7239,-1.95595 50.28472,0.9314c20.32786,4.65702 21.13028,23.59555 21.39776,44.08643c0,14.90245 11.23381,27.32117 21.93269,34.15145c24.95513,16.54793 42.7955,40.67128 53.49438,72.33899c0.34772,0.83827 0.34772,1.86281 0,3.10467c-6.15186,31.04678 -32.89905,36.94567 -28.08455,74.51227c5.34944,43.15502 6.15186,92.5194 -26.7472,121.39291c-6.41932,5.58842 -10.51165,9.93497 -12.3037,13.03965c-6.95427,12.41871 -6.68679,26.0793 -12.3037,41.29223c-0.32759,0.98828 -0.42002,2.06067 -0.26748,3.10467c3.20967,26.70022 -21.39776,48.74344 -38.24848,62.40402c-7.7788,6.56488 -13.73001,15.63147 -17.11819,26.0793c-6.42016,31.87815 -13.55515,63.55664 -21.39776,95.00314c-0.35661,0.99349 -0.35661,2.11119 0,3.10467l5.34944,21.73274c2.67471,12.41871 8.82657,21.11181 13.90855,32.28865c4.27956,9.31403 4.01208,18.62807 4.54702,29.18397l1.87231,17.07573c1.06989,8.07215 -0.26748,14.90245 1.87231,22.66415c7.22175,26.70022 16.58326,46.2597 -13.37359,56.81559c-15.78085,5.27795 -32.09663,11.79777 -48.14494,14.28152c-16.31578,2.48375 -40.65573,4.03608 -53.49438,17.69667c-10.71423,11.45911 -18.0191,26.56936 -20.8628,43.15502c-11.23381,59.92029 -43.33044,111.7684 -94.95252,129.15461c-35.30629,11.79777 -69.81017,27.32117 -105.11646,21.73274l-36.10871,-5.27795c-9.09405,-1.55235 -25.40983,-4.65702 -30.75926,-8.6931c-8.29162,-6.20935 -16.85074,-10.5559 -26.7472,-6.8303c-11.76876,4.34655 -30.22433,15.83385 -33.96893,30.73631c-0.53493,2.70108 -0.26748,6.73715 0.80241,12.10825c2.13978,9.00356 -0.80241,18.3176 -1.33736,26.38976c-2.40726,28.25257 -17.65315,21.73274 -34.50387,30.73631l-2.67471,0.31047c-15.86108,-1.02455 -23.3503,7.66856 -22.46764,26.0793l-0.53493,3.10467c-2.40726,5.58842 -1.06989,11.4873 -2.13978,16.76525c-2.40726,11.79777 -1.87231,20.80134 -13.37359,25.76883c-0.77202,0.3625 -1.63522,0.3625 -2.40726,0c-17.36144,-8.84666 -34.93229,-17.12903 -52.69196,-24.83742c-3.80281,-1.73741 -7.39836,-4.03282 -10.69888,-6.8303c-5.34944,-3.72562 -10.69888,-5.58842 -15.24589,-8.38263c-18.45557,-12.41871 -33.43399,-27.9421 -37.98102,-54.0214c-1.4176,-8.28949 -5.53666,-15.11977 -12.3037,-20.49088c-12.3037,-9.71765 -25.14236,-10.77323 -38.51595,-3.10467c-18.72304,10.33858 -38.51595,14.49885 -59.37876,12.41871c-12.83866,-1.24187 -28.88696,-25.76883 -34.23641,-38.18753c-2.13978,-4.65702 -5.08197,-6.20935 -8.29162,-9.31403c-0.64912,-0.78746 -1.48829,-1.32862 -2.40726,-1.55235c-22.20017,-3.72562 -30.22433,-1.86281 -47.61,14.90245c-16.32507,15.78945 -36.35925,25.52396 -57.50647,27.9421c-11.76876,1.86281 -30.4918,-7.7617 -37.98102,-15.5234c-5.34944,-5.18482 -10.51165,-7.85483 -15.51337,-8.07215c-21.13028,-0.62093 -27.54962,13.66058 -39.0509,31.04678c-9.89647,14.28152 -20.8628,21.11181 -36.10871,9.62451c-11.76876,-9.00356 -25.6773,-13.03965 -40.92321,-21.11181c-3.55738,-2.08012 -7.75669,-3.10467 -12.57117,-3.10467c-15.78085,-1.24187 -33.16652,-9.93497 -48.14494,-15.5234c-8.02416,-3.41515 -18.72304,-4.34655 -28.08455,-9.31403c-0.72217,-0.40361 -1.60483,-0.52779 -2.67471,-0.31047c-5.08197,1.55235 -8.29162,-1.55235 -13.10613,-1.55235h-80.50905c-7.83692,0 -15.32614,1.14873 -22.46764,3.41515c-20.68058,6.2028 -41.11717,13.454 -61.25107,21.73274c-4.01208,1.55235 -8.02416,0 -11.50129,2.17327c-14.44348,7.45123 -30.75926,12.41871 -43.59792,22.66415c-72.21742,57.43654 -156.73854,137.8477 -166.36752,242.47534c-0.34525,4.54479 -1.15331,9.02607 -2.40726,13.35012c-2.67471,9.62451 -1.06989,18.00714 -2.13978,27.9421c-1.07208,10.82182 -1.25121,21.73777 -0.53493,32.59912c0.80241,11.79777 0,28.87351 2.67471,42.22362c4.54702,21.73274 2.40726,46.57017 2.40726,68.61338c0,4.56387 -0.72217,10.24544 -2.13978,17.07573c-2.67471,11.4873 -2.67471,20.80134 0,33.84099c2.13978,13.03965 2.94219,31.04678 3.7446,39.11895c2.13978,18.00714 2.67471,36.01426 6.41932,53.40046c1.06989,4.96748 1.95254,10.9595 2.67471,18.00714c0.53493,8.07215 2.67471,16.14433 3.47712,23.90603c1.87231,21.73274 3.7446,42.22362 5.08197,65.19823c0.53493,13.97104 5.34944,26.0793 5.34944,39.73988c0,4.96748 0.53493,10.64904 1.60483,17.07573c1.79206,13.66058 3.55738,44.61422 5.34944,92.82987c0.26748,11.4873 4.8145,19.249 7.22175,30.42584c1.4176,6.8303 2.75495,12.0151 4.01208,15.5234c8.5591,27.9421 17.11819,55.26326 24.60742,83.51583c9.09405,36.01426 26.21224,68.92385 33.70145,105.55906c4.54702,21.73274 16.85074,54.0214 32.09663,68.30291c12.37482,11.72997 26.52509,20.67942 41.72562,26.38976c3.02244,1.24187 6.76704,3.41515 11.23381,6.51982c8.82657,6.20935 17.92061,5.58842 26.47972,9.31403c5.08197,2.48375 10.16394,5.58842 15.78085,5.58842c21.39776,-0.40361 36.91112,0.21733 46.54011,1.86281c13.90855,2.48375 31.02674,12.41871 47.61,14.59198c11.50129,1.55235 21.93269,7.45123 33.16652,7.7617c21.39776,0.40361 42.7955,1.14873 64.19326,2.17327c10.16394,0.62093 18.45557,5.58842 27.81707,9.62451c7.48921,3.322 11.58153,9.71765 12.3037,19.249zM-270.98013,279.25538c5.37864,6.65146 11.95387,11.84555 19.25798,15.21293c11.23381,2.48375 25.86453,3.50829 43.8654,3.10467c6.95427,-0.31047 13.37359,2.79421 21.13028,2.17327c0.80241,-0.06208 1.65833,0.15524 2.40726,0.62093c5.00173,3.10467 10.35116,4.87435 16.04832,5.27795c16.04832,1.24187 32.09663,13.97104 48.41241,5.58842c11.23381,-5.58842 25.6773,-7.14076 32.09663,-19.55947c5.34944,-10.33858 13.98877,-30.64316 25.94477,-60.85169c0.34772,-1.02455 0.45471,-2.08012 0.26748,-3.10467c-0.72217,-7.66856 -0.53493,-15.21293 0.53493,-22.66415c1.87231,-13.35012 -0.80241,-29.80491 3.47712,-41.60269c9.09405,-25.45836 34.23641,-33.84099 48.14494,-52.77952c14.71096,-20.18041 15.24589,-60.23075 -7.48921,-75.44367c-21.93269,-14.28152 -46.80759,0.9314 -56.1691,25.76883c-1.06989,3.10467 -0.26748,7.45123 -1.33736,11.17685l-1.60483,8.38263c-2.13978,40.98174 -28.08455,61.78309 -46.00516,94.07173c-8.02416,13.66058 -27.01466,49.67485 -41.99309,44.3969c-16.85074,-6.20935 -19.79293,-26.0793 -32.09663,-39.42941c-0.66368,-0.70866 -1.50933,-1.14495 -2.40726,-1.24187c-41.72562,-5.58842 -59.11129,23.90603 -79.70664,58.98888c-8.5591,14.59198 -2.67471,31.04678 7.22175,41.91315zM-599.16818,330.79304c20.59534,37.87707 66.86798,16.14433 93.88265,6.20935c8.82657,-3.10467 17.11819,-2.79421 25.94477,-1.55235c14.71096,1.86281 35.03883,3.10467 48.67989,-1.86281c9.81622,-3.72562 16.6635,-5.49528 20.59534,-5.27795c9.09405,0.62093 17.38567,-5.58842 27.54962,-6.20935c20.32786,-0.9314 28.61949,-14.59198 39.85331,-29.80491c5.34944,-7.7617 11.50129,-18.62807 9.62898,-27.32117c-3.20967,-15.21293 -3.47712,-31.04678 -9.09405,-45.3283c-0.37446,-0.77617 -0.53493,-1.61443 -0.53493,-2.48375c4.01208,-32.59912 -33.43399,-41.29223 -53.49438,-36.32473c-8.02416,2.17327 -14.176,6.8303 -21.39776,11.17685c-16.65222,10.47276 -28.05794,29.46808 -30.75926,51.22718c-4.54702,31.04678 -16.58326,43.77595 -37.98102,60.85169c-35.84124,28.56303 -48.94735,-7.14076 -80.24158,-9.31403c-8.37187,-0.40361 -13.98877,-0.21733 -16.85074,0.62093c-13.37359,4.34655 -24.07247,19.86992 -15.78085,35.39332zM166.60389,740.6105c10.69888,24.83742 41.72562,42.84455 63.12338,25.45836c17.65315,-14.49885 35.49351,-28.3457 53.49438,-41.60269c34.09985,-24.81747 58.92104,-63.60171 69.5427,-108.66373c2.67471,-12.41871 -4.54702,-22.66415 -5.34944,-35.39332c-0.53493,-10.86637 -4.27956,-19.86992 -5.34944,-31.04678c-2.13978,-26.0793 -23.53753,-43.15502 -22.46764,-68.30291c0.59031,-11.81674 -1.24302,-23.62747 -5.34944,-34.46192c-0.35661,-0.99349 -0.35661,-2.11119 0,-3.10467c0.34772,-3.10467 0,-5.68155 -1.06989,-7.7617c-0.53493,-1.02455 -0.80241,-2.08012 -0.80241,-3.10467c5.34944,-50.29578 -40.12078,-48.12251 -67.40292,-61.16215c-21.93269,-10.5559 -49.48231,10.24544 -62.58842,29.80491c-6.09969,8.85255 -10.89022,18.81965 -14.176,29.49444c-2.67471,9.00356 -1.87231,19.249 -2.67471,28.87351c-0.88266,8.6931 -1.33736,15.92699 -1.33736,21.73274c0.88266,32.50597 -0.53493,64.79463 -4.27956,96.86595l-0.80241,15.83385c0,13.66058 -2.13978,27.9421 -2.13978,39.73988v44.70736c0,4.96748 2.40726,10.24544 2.13978,14.90245c-1.06989,15.21293 2.40726,34.15145 7.48921,46.88063zM-575.36317,1300.07344c4.54702,6.20935 13.37359,10.24544 19.79293,13.03965c12.03624,4.96748 24.07247,-0.9314 36.64365,3.10467c3.7446,1.45919 6.76704,1.64548 9.09405,0.62093c8.02416,-4.12922 16.39602,-6.20935 25.14236,-6.20935c5.16221,-0.21733 9.81622,-0.9314 13.90855,-2.17327c10.69888,-3.10467 21.66523,-4.43969 32.89905,-4.03608c6.68679,0 12.83866,-2.48375 20.06038,-2.48375c10.4314,0 18.72304,-3.10467 28.35203,-3.41515c5.08197,-0.31047 10.4314,2.48375 16.85074,2.48375c3.55738,0 11.42105,1.02455 23.53753,3.10467c26.7472,5.58842 41.72562,-18.62807 53.49438,-44.08643c3.20967,-6.51982 2.94219,-14.90245 6.68679,-22.97463c6.60656,-15.92699 13.18636,-34.7724 19.79293,-56.50513c2.13978,-7.14076 7.48921,-12.10825 9.36151,-19.55947c2.48748,-9.31403 5.69715,-18.3176 9.62898,-27.0107c5.88438,-13.35012 7.48921,-26.38976 12.03624,-40.36081c1.06989,-3.10467 1.79206,-6.92343 2.13978,-11.4873c0.53493,-11.79777 11.23381,-21.73274 13.37359,-34.46192c1.87231,-10.24544 5.34944,-17.3862 6.95427,-26.38976c1.19033,-6.58639 2.6181,-13.11195 4.27956,-19.55947c2.67471,-9.31403 2.67471,-18.93852 5.88438,-27.9421c2.13978,-6.20935 5.61691,-14.90245 4.54702,-20.18041c-0.35661,-0.99349 -0.35661,-2.11119 0,-3.10467c3.20967,-10.9595 6.95427,-21.82588 11.23381,-32.59912c1.60483,-3.72562 2.48748,-7.85483 2.67471,-12.41871c0.34772,-10.9595 2.59447,-21.32915 6.68679,-31.04678l0.53493,-3.10467c-1.29199,-11.68507 0.3812,-23.55385 4.8145,-34.15145c0.53493,-1.02455 0.72217,-2.08012 0.53493,-3.10467c-1.33736,-13.35012 1.60483,-27.0107 1.60483,-37.5666v-29.18397c0,-12.41871 6.68679,-22.35367 6.68679,-35.7038v-162.37465c0,-4.34655 -0.80241,-9.22089 -2.40726,-14.59198c-3.19758,-10.67368 -4.73714,-21.92161 -4.54702,-33.22005c0.53493,-41.91315 -29.95685,-92.5194 -69.00776,-86.93098c-29.42192,3.72562 -59.37876,6.51982 -89.06815,9.31403c-17.97965,2.09783 -34.9714,10.5506 -48.67989,24.21648c-11.50129,10.5559 -5.34944,45.94922 -1.60483,60.85169c7.75669,29.49444 14.44348,58.36795 15.24589,90.03566c1.25712,45.3283 1.4176,90.65659 0.53493,135.98488l-0.26748,0.9314c-0.29846,0.45011 -0.48362,0.98744 -0.53493,1.55235c0.19207,16.41962 -1.4259,32.80032 -4.8145,48.74344c-9.62898,43.77595 -17.38567,88.17285 -31.29422,127.60225c-13.37359,37.25613 -24.87488,76.37508 -42.7955,111.7684l-18.18809,36.01426c-27.83786,57.33266 -59.12034,112.31806 -93.61516,164.54793c-11.50129,18.00714 -21.39776,25.14789 -19.25798,51.53765c0,1.02455 0.34772,1.86281 1.06989,2.48375zM465.37001,526.38774c-1.87231,25.45836 13.37359,50.91672 36.64365,50.60625c14.44348,0 37.44606,-20.80134 50.01725,-30.42584c12.3037,-9.62451 16.85074,-24.21648 13.64107,-40.36081c-6.41932,-33.22005 -40.92321,-43.15502 -65.79809,-32.28865c-21.21053,9.31403 -32.71181,26.91756 -34.50387,52.77952z" id="CompoundPath 1" fill="url(#color-1)"></path></g></g></g></g></g></svg>