<?xml version="1.0" encoding="UTF-8" standalone="no"?><svg xmlns="http://www.w3.org/2000/svg" xmlns:xlink="http://www.w3.org/1999/xlink" xml:space="preserve" viewBox="0 0 1005 1005"><switch><g><defs><path id="a" d="M295.4 6C242.2 8.5 206 17 174.1 29.4a244.6 244.6 0 0 0-88.4 57.9 245 245 0 0 0-57.5 88.6c-12.3 31.9-20.7 68.2-23 121.4-2.4 53.4-2.9 70.4-2.6 206.2.2 135.7.8 152.8 3.4 206.1 2.5 53.2 11 89.5 23.4 121.3 12.9 32.8 30 60.7 57.9 88.4a245.2 245.2 0 0 0 88.6 57.5c31.8 12.3 68.2 20.7 121.4 23 53.4 2.4 70.4 2.9 206.1 2.6 135.8-.2 152.9-.8 206.2-3.3 53.2-2.6 89.5-11.1 121.3-23.5a245 245 0 0 0 88.4-57.9 245.1 245.1 0 0 0 57.5-88.6c12.3-31.8 20.7-68.2 23-121.4 2.3-53.4 2.9-70.4 2.6-206.2-.2-135.7-.8-152.7-3.4-206-2.5-53.3-11-89.6-23.4-121.4a245.3 245.3 0 0 0-57.9-88.4 244.7 244.7 0 0 0-88.6-57.5c-31.8-12.3-68.2-20.7-121.4-23-53.3-2.4-70.4-2.9-206.2-2.6-135.7.2-152.7.8-206 3.4m5.8 903.8c-48.8-2-75.3-10.2-92.9-17-23.4-9-40-19.8-57.6-37.3a155.4 155.4 0 0 1-37.5-57.4c-6.8-17.6-15-44-17.4-92.8-2.4-52.7-3-68.5-3.3-202-.2-133.5.3-149.3 2.6-202 2-48.8 10.2-75.3 17-92.9 9-23.4 19.8-40 37.3-57.6a154.9 154.9 0 0 1 57.4-37.5c17.6-6.9 44-15 92.8-17.4 52.7-2.5 68.5-3 202-3.2 133.5-.3 149.3.2 202 2.5 48.8 2.1 75.3 10.2 92.9 17 23.4 9 40 19.8 57.6 37.3 17.5 17.5 28.4 34 37.5 57.4 6.9 17.6 15 44 17.3 92.8 2.6 52.7 3.1 68.5 3.4 202 .2 133.5-.3 149.3-2.6 202-2.1 48.8-10.2 75.3-17 93-9 23.3-19.8 40-37.3 57.5a155.4 155.4 0 0 1-57.4 37.5c-17.6 6.9-44 15-92.8 17.4-52.7 2.5-68.5 3-202 3.3-133.5.2-149.3-.3-202-2.6m407.6-674.6a60 60 0 1 0 120-.2 60 60 0 0 0-120 .2M245.8 503a256.7 256.7 0 1 0 513.4-1 256.7 256.7 0 0 0-513.4 1m90-.2a166.7 166.7 0 1 1 333.4-.6 166.7 166.7 0 0 1-333.4.6"></path></defs><clipPath id="b"><use xlink:href="#a" overflow="visible"></use></clipPath><g clip-path="url(#b)"><defs><rect id="c" width="1080" height="1080" x="-37.9" y="-36.7"></rect></defs><clipPath id="d"><use xlink:href="#c" overflow="visible"></use></clipPath><g clip-path="url(#d)"><defs><rect id="e" width="1090" height="1090" x="-42.9" y="-41.7"></rect></defs><clipPath id="f"><use xlink:href="#e" overflow="visible"></use></clipPath><g clip-path="url(#f)"><defs><rect id="g" width="1090" height="1090" x="-42.9" y="-41.7"></rect></defs><clipPath id="h"><use xlink:href="#g" overflow="visible"></use></clipPath><g clip-path="url(#h)"><image width="2272" height="2272" overflow="visible" transform="matrix(.48 0 0 .48 -43.3 -41.8)"></image></g></g></g></g></g></switch></svg>