<?xml version="1.0" standalone="no"?>
<svg xmlns="http://www.w3.org/2000/svg" version="1.1" width="275" height="275">
&#x9;
&#x9;<title>QR Code</title>
&#x9;<desc>M.ARBORLIFEDESIGNS.NET</desc>
&#x9;<rect style="fill:rgb(255, 255, 255);fill-opacity:1" x="0" y="0" width="275" height="275"></rect>
&#x9;<g id="elements">
&#x9;&#x9;<path style="fill:rgb(0, 0, 0)" d="M 22,22 l 11,0 0,11 -11,0 z M 33,22 l 11,0 0,11 -11,0 z M 44,22 l 11,0 0,11 -11,0 z M 55,22 l 11,0 0,11 -11,0 z M 66,22 l 11,0 0,11 -11,0 z M 77,22 l 11,0 0,11 -11,0 z M 88,22 l 11,0 0,11 -11,0 z M 121,22 l 11,0 0,11 -11,0 z M 154,22 l 11,0 0,11 -11,0 z M 176,22 l 11,0 0,11 -11,0 z M 187,22 l 11,0 0,11 -11,0 z M 198,22 l 11,0 0,11 -11,0 z M 209,22 l 11,0 0,11 -11,0 z M 220,22 l 11,0 0,11 -11,0 z M 231,22 l 11,0 0,11 -11,0 z M 242,22 l 11,0 0,11 -11,0 z M 22,33 l 11,0 0,11 -11,0 z M 88,33 l 11,0 0,11 -11,0 z M 110,33 l 11,0 0,11 -11,0 z M 121,33 l 11,0 0,11 -11,0 z M 143,33 l 11,0 0,11 -11,0 z M 176,33 l 11,0 0,11 -11,0 z M 242,33 l 11,0 0,11 -11,0 z M 22,44 l 11,0 0,11 -11,0 z M 44,44 l 11,0 0,11 -11,0 z M 55,44 l 11,0 0,11 -11,0 z M 66,44 l 11,0 0,11 -11,0 z M 88,44 l 11,0 0,11 -11,0 z M 121,44 l 11,0 0,11 -11,0 z M 154,44 l 11,0 0,11 -11,0 z M 176,44 l 11,0 0,11 -11,0 z M 198,44 l 11,0 0,11 -11,0 z M 209,44 l 11,0 0,11 -11,0 z M 220,44 l 11,0 0,11 -11,0 z M 242,44 l 11,0 0,11 -11,0 z M 22,55 l 11,0 0,11 -11,0 z M 44,55 l 11,0 0,11 -11,0 z M 55,55 l 11,0 0,11 -11,0 z M 66,55 l 11,0 0,11 -11,0 z M 88,55 l 11,0 0,11 -11,0 z M 110,55 l 11,0 0,11 -11,0 z M 121,55 l 11,0 0,11 -11,0 z M 143,55 l 11,0 0,11 -11,0 z M 154,55 l 11,0 0,11 -11,0 z M 176,55 l 11,0 0,11 -11,0 z M 198,55 l 11,0 0,11 -11,0 z M 209,55 l 11,0 0,11 -11,0 z M 220,55 l 11,0 0,11 -11,0 z M 242,55 l 11,0 0,11 -11,0 z M 22,66 l 11,0 0,11 -11,0 z M 44,66 l 11,0 0,11 -11,0 z M 55,66 l 11,0 0,11 -11,0 z M 66,66 l 11,0 0,11 -11,0 z M 88,66 l 11,0 0,11 -11,0 z M 132,66 l 11,0 0,11 -11,0 z M 176,66 l 11,0 0,11 -11,0 z M 198,66 l 11,0 0,11 -11,0 z M 209,66 l 11,0 0,11 -11,0 z M 220,66 l 11,0 0,11 -11,0 z M 242,66 l 11,0 0,11 -11,0 z M 22,77 l 11,0 0,11 -11,0 z M 88,77 l 11,0 0,11 -11,0 z M 110,77 l 11,0 0,11 -11,0 z M 121,77 l 11,0 0,11 -11,0 z M 132,77 l 11,0 0,11 -11,0 z M 176,77 l 11,0 0,11 -11,0 z M 242,77 l 11,0 0,11 -11,0 z M 22,88 l 11,0 0,11 -11,0 z M 33,88 l 11,0 0,11 -11,0 z M 44,88 l 11,0 0,11 -11,0 z M 55,88 l 11,0 0,11 -11,0 z M 66,88 l 11,0 0,11 -11,0 z M 77,88 l 11,0 0,11 -11,0 z M 88,88 l 11,0 0,11 -11,0 z M 110,88 l 11,0 0,11 -11,0 z M 132,88 l 11,0 0,11 -11,0 z M 154,88 l 11,0 0,11 -11,0 z M 176,88 l 11,0 0,11 -11,0 z M 187,88 l 11,0 0,11 -11,0 z M 198,88 l 11,0 0,11 -11,0 z M 209,88 l 11,0 0,11 -11,0 z M 220,88 l 11,0 0,11 -11,0 z M 231,88 l 11,0 0,11 -11,0 z M 242,88 l 11,0 0,11 -11,0 z M 132,99 l 11,0 0,11 -11,0 z M 22,110 l 11,0 0,11 -11,0 z M 33,110 l 11,0 0,11 -11,0 z M 44,110 l 11,0 0,11 -11,0 z M 55,110 l 11,0 0,11 -11,0 z M 66,110 l 11,0 0,11 -11,0 z M 88,110 l 11,0 0,11 -11,0 z M 99,110 l 11,0 0,11 -11,0 z M 110,110 l 11,0 0,11 -11,0 z M 121,110 l 11,0 0,11 -11,0 z M 154,110 l 11,0 0,11 -11,0 z M 165,110 l 11,0 0,11 -11,0 z M 187,110 l 11,0 0,11 -11,0 z M 209,110 l 11,0 0,11 -11,0 z M 231,110 l 11,0 0,11 -11,0 z M 44,121 l 11,0 0,11 -11,0 z M 55,121 l 11,0 0,11 -11,0 z M 66,121 l 11,0 0,11 -11,0 z M 99,121 l 11,0 0,11 -11,0 z M 110,121 l 11,0 0,11 -11,0 z M 121,121 l 11,0 0,11 -11,0 z M 143,121 l 11,0 0,11 -11,0 z M 220,121 l 11,0 0,11 -11,0 z M 22,132 l 11,0 0,11 -11,0 z M 33,132 l 11,0 0,11 -11,0 z M 77,132 l 11,0 0,11 -11,0 z M 88,132 l 11,0 0,11 -11,0 z M 110,132 l 11,0 0,11 -11,0 z M 121,132 l 11,0 0,11 -11,0 z M 143,132 l 11,0 0,11 -11,0 z M 209,132 l 11,0 0,11 -11,0 z M 242,132 l 11,0 0,11 -11,0 z M 110,143 l 11,0 0,11 -11,0 z M 121,143 l 11,0 0,11 -11,0 z M 132,143 l 11,0 0,11 -11,0 z M 165,143 l 11,0 0,11 -11,0 z M 66,154 l 11,0 0,11 -11,0 z M 88,154 l 11,0 0,11 -11,0 z M 110,154 l 11,0 0,11 -11,0 z M 121,154 l 11,0 0,11 -11,0 z M 143,154 l 11,0 0,11 -11,0 z M 176,154 l 11,0 0,11 -11,0 z M 187,154 l 11,0 0,11 -11,0 z M 198,154 l 11,0 0,11 -11,0 z M 209,154 l 11,0 0,11 -11,0 z M 110,165 l 11,0 0,11 -11,0 z M 143,165 l 11,0 0,11 -11,0 z M 176,165 l 11,0 0,11 -11,0 z M 198,165 l 11,0 0,11 -11,0 z M 22,176 l 11,0 0,11 -11,0 z M 33,176 l 11,0 0,11 -11,0 z M 44,176 l 11,0 0,11 -11,0 z M 55,176 l 11,0 0,11 -11,0 z M 66,176 l 11,0 0,11 -11,0 z M 77,176 l 11,0 0,11 -11,0 z M 88,176 l 11,0 0,11 -11,0 z M 110,176 l 11,0 0,11 -11,0 z M 143,176 l 11,0 0,11 -11,0 z M 154,176 l 11,0 0,11 -11,0 z M 176,176 l 11,0 0,11 -11,0 z M 187,176 l 11,0 0,11 -11,0 z M 231,176 l 11,0 0,11 -11,0 z M 22,187 l 11,0 0,11 -11,0 z M 88,187 l 11,0 0,11 -11,0 z M 165,187 l 11,0 0,11 -11,0 z M 198,187 l 11,0 0,11 -11,0 z M 231,187 l 11,0 0,11 -11,0 z M 242,187 l 11,0 0,11 -11,0 z M 22,198 l 11,0 0,11 -11,0 z M 44,198 l 11,0 0,11 -11,0 z M 55,198 l 11,0 0,11 -11,0 z M 66,198 l 11,0 0,11 -11,0 z M 88,198 l 11,0 0,11 -11,0 z M 110,198 l 11,0 0,11 -11,0 z M 121,198 l 11,0 0,11 -11,0 z M 154,198 l 11,0 0,11 -11,0 z M 187,198 l 11,0 0,11 -11,0 z M 220,198 l 11,0 0,11 -11,0 z M 242,198 l 11,0 0,11 -11,0 z M 22,209 l 11,0 0,11 -11,0 z M 44,209 l 11,0 0,11 -11,0 z M 55,209 l 11,0 0,11 -11,0 z M 66,209 l 11,0 0,11 -11,0 z M 88,209 l 11,0 0,11 -11,0 z M 110,209 l 11,0 0,11 -11,0 z M 121,209 l 11,0 0,11 -11,0 z M 154,209 l 11,0 0,11 -11,0 z M 176,209 l 11,0 0,11 -11,0 z M 187,209 l 11,0 0,11 -11,0 z M 198,209 l 11,0 0,11 -11,0 z M 220,209 l 11,0 0,11 -11,0 z M 22,220 l 11,0 0,11 -11,0 z M 44,220 l 11,0 0,11 -11,0 z M 55,220 l 11,0 0,11 -11,0 z M 66,220 l 11,0 0,11 -11,0 z M 88,220 l 11,0 0,11 -11,0 z M 110,220 l 11,0 0,11 -11,0 z M 121,220 l 11,0 0,11 -11,0 z M 132,220 l 11,0 0,11 -11,0 z M 143,220 l 11,0 0,11 -11,0 z M 154,220 l 11,0 0,11 -11,0 z M 165,220 l 11,0 0,11 -11,0 z M 187,220 l 11,0 0,11 -11,0 z M 198,220 l 11,0 0,11 -11,0 z M 209,220 l 11,0 0,11 -11,0 z M 220,220 l 11,0 0,11 -11,0 z M 22,231 l 11,0 0,11 -11,0 z M 88,231 l 11,0 0,11 -11,0 z M 110,231 l 11,0 0,11 -11,0 z M 121,231 l 11,0 0,11 -11,0 z M 132,231 l 11,0 0,11 -11,0 z M 143,231 l 11,0 0,11 -11,0 z M 154,231 l 11,0 0,11 -11,0 z M 176,231 l 11,0 0,11 -11,0 z M 187,231 l 11,0 0,11 -11,0 z M 198,231 l 11,0 0,11 -11,0 z M 209,231 l 11,0 0,11 -11,0 z M 242,231 l 11,0 0,11 -11,0 z M 22,242 l 11,0 0,11 -11,0 z M 33,242 l 11,0 0,11 -11,0 z M 44,242 l 11,0 0,11 -11,0 z M 55,242 l 11,0 0,11 -11,0 z M 66,242 l 11,0 0,11 -11,0 z M 77,242 l 11,0 0,11 -11,0 z M 88,242 l 11,0 0,11 -11,0 z M 110,242 l 11,0 0,11 -11,0 z M 121,242 l 11,0 0,11 -11,0 z M 132,242 l 11,0 0,11 -11,0 z M 143,242 l 11,0 0,11 -11,0 z M 165,242 l 11,0 0,11 -11,0 z "></path>
&#x9;</g>
</svg>